<mxfile host="app.diagrams.net" modified="2024-03-05T19:38:48.866Z" agent="Mozilla/5.0 (Windows NT 10.0; Win64; x64) AppleWebKit/537.36 (KHTML, like Gecko) Chrome/122.0.0.0 Safari/537.36" version="23.1.7" etag="FiqWUUth1N-WJStzvUTB" type="github">
  <diagram name="PÃ¡gina-1" id="kjYTD-B8smDgBPY1PXyO">
    <mxGraphModel>
      <root>
        <mxCell id="0" />
        <mxCell id="1" parent="0" />
      </root>
    </mxGraphModel>
  </diagram>
</mxfile>
